<?xml version="1.0" standalone="no"?>
<!DOCTYPE svg PUBLIC "-//W3C//DTD SVG 20010904//EN"
 "http://www.w3.org/TR/2001/REC-SVG-20010904/DTD/svg10.dtd">
<svg version="1.0" xmlns="http://www.w3.org/2000/svg"
 width="700.000000pt" height="700.000000pt" viewBox="0 0 700.000000 700.000000"
 preserveAspectRatio="xMidYMid meet">
<metadata>
Created by potrace 1.11, written by Peter Selinger 2001-2013
</metadata>
<g transform="translate(0.000000,700.000000) scale(0.100000,-0.100000)"
fill="#000000" stroke="none">
<path d="M1560 6991 c0 -5 5 -13 11 -16 6 -4 13 -14 17 -24 4 -9 68 -108 143
-221 268 -404 508 -769 663 -1005 87 -132 162 -244 167 -249 5 -6 9 214 9 540
l0 549 -27 12 c-186 78 -519 221 -558 238 -27 13 -90 40 -140 60 -49 21 -110
46 -135 57 -25 11 -61 27 -80 35 -19 9 -43 20 -52 25 -11 5 -18 5 -18 -1z"/>
<path d="M1490 6404 l0 -550 498 -214 c273 -117 501 -215 506 -218 10 -6 6 2
-35 63 -29 44 -133 202 -164 251 -11 17 -32 48 -46 70 -14 21 -88 134 -164
249 -203 308 -466 707 -535 810 l-60 89 0 -550z"/>
<path d="M4110 6475 c-19 -13 -163 -108 -320 -211 -157 -103 -395 -259 -530
-348 -135 -89 -321 -211 -415 -273 -93 -61 -183 -121 -200 -132 l-30 -21 551
0 551 0 38 88 c21 48 48 110 60 137 12 28 48 111 80 185 31 74 65 153 75 175
52 115 180 418 178 420 -2 2 -19 -8 -38 -20z"/>
<path d="M4282 6467 c-12 -15 -18 -28 -217 -492 -92 -214 -176 -408 -186 -430
-35 -78 -34 -79 28 -172 32 -49 60 -92 62 -98 2 -5 8 -14 13 -20 5 -5 108
-161 230 -345 121 -184 239 -363 261 -397 l42 -61 551 0 552 0 52 121 c29 67
58 136 66 152 118 266 314 734 311 745 -2 9 -114 182 -248 385 -135 204 -282
427 -329 498 l-84 127 -547 0 c-418 0 -549 -3 -557 -13z"/>
<path d="M2410 5355 c-25 -19 -49 -34 -53 -34 -4 -1 -13 -6 -20 -12 -7 -5 -82
-56 -168 -112 -157 -103 -229 -150 -784 -515 -170 -112 -321 -212 -335 -223
-14 -10 -42 -28 -62 -39 -20 -11 -39 -24 -42 -29 -4 -6 206 -9 541 -8 l548 2
197 455 c250 580 238 550 230 549 -4 0 -27 -15 -52 -34z"/>
<path d="M2597 5362 c-9 -2 -17 -8 -17 -12 0 -8 -10 -32 -61 -145 -5 -11 -90
-207 -188 -435 -144 -334 -177 -419 -169 -434 10 -18 198 -303 510 -774 70
-106 131 -200 136 -209 8 -14 61 -16 508 -15 275 0 525 1 556 1 50 1 58 4 64
23 4 13 20 50 35 83 15 34 32 73 38 86 5 14 86 205 180 423 96 222 168 402
164 409 -4 7 -101 153 -215 326 -114 173 -208 318 -208 323 0 4 -4 8 -10 8 -5
0 -10 4 -10 8 0 7 -202 317 -215 331 -7 6 -1067 9 -1098 3z"/>
<path d="M902 4245 c-22 -33 -432 -1000 -429 -1010 3 -6 119 -184 259 -395
140 -212 287 -436 327 -498 l74 -112 555 2 555 3 57 135 c32 74 65 151 74 170
59 130 289 669 293 687 4 15 -7 40 -30 75 -318 483 -593 899 -609 923 l-20 30
-550 0 c-357 0 -552 -3 -556 -10z"/>
<path d="M4501 4218 c-7 -18 -15 -37 -17 -43 -1 -5 -93 -219 -203 -474 -111
-255 -198 -468 -194 -475 7 -10 119 -181 498 -757 l163 -246 552 1 553 1 38
90 c22 50 43 99 48 110 16 35 304 703 337 781 15 35 38 -2 -365 604 -75 113
-137 208 -139 212 -2 4 -36 55 -76 115 l-72 108 -555 3 -555 2 -13 -32z"/>
<path d="M2821 3118 c-9 -22 -96 -226 -126 -295 -8 -18 -21 -48 -29 -65 -146
-341 -232 -541 -247 -575 -10 -23 -19 -47 -19 -53 0 -6 102 -165 226 -353 124
-188 273 -414 332 -502 l106 -161 545 2 c300 1 549 2 553 3 8 1 16 18 73 151
270 624 366 854 362 865 -3 7 -54 86 -114 176 -59 90 -110 169 -113 174 -3 6
-101 155 -219 333 l-213 322 -554 0 -554 0 -9 -22z"/>
<path d="M4762 2021 c-5 -3 -23 -40 -40 -81 -31 -76 -192 -451 -217 -505 -53
-117 -175 -409 -175 -420 0 -8 40 -74 88 -147 49 -73 182 -275 297 -448 114
-173 223 -339 242 -367 l35 -53 553 0 552 0 33 78 c18 42 40 95 50 117 10 22
40 90 65 150 57 134 72 169 95 220 34 73 190 443 190 449 0 3 -115 180 -256
394 -140 213 -290 440 -332 504 l-77 116 -547 -1 c-301 0 -551 -3 -556 -6z"/>
</g>
</svg>
