<?xml version="1.0" encoding="UTF-8" standalone="no"?>
<!-- Created with Inkscape (http://www.inkscape.org/) -->

<svg
   xmlns:dc="http://purl.org/dc/elements/1.1/"
   xmlns:cc="http://creativecommons.org/ns#"
   xmlns:rdf="http://www.w3.org/1999/02/22-rdf-syntax-ns#"
   xmlns:svg="http://www.w3.org/2000/svg"
   xmlns="http://www.w3.org/2000/svg"
   xmlns:sodipodi="http://sodipodi.sourceforge.net/DTD/sodipodi-0.dtd"
   xmlns:inkscape="http://www.inkscape.org/namespaces/inkscape"
   width="600"
   height="600"
   viewBox="0 0 158.75 158.75001"
   version="1.1"
   id="svg4081"
   inkscape:version="0.92.2 (unknown)"
   sodipodi:docname="logo-favicon.svg">
  <defs
     id="defs4075" />
  <sodipodi:namedview
     id="base"
     pagecolor="#ffffff"
     bordercolor="#6666c8"
     borderopacity="1"
     inkscape:pageopacity="0"
     inkscape:pageshadow="2"
     inkscape:zoom="0.80694735"
     inkscape:cx="170.95321"
     inkscape:cy="233.23502"
     inkscape:document-units="px"
     inkscape:current-layer="layer1"
     showgrid="false"
     inkscape:snap-global="false"
     inkscape:snap-grids="false"
     inkscape:snap-to-guides="false"
     inkscape:snap-midpoints="true"
     units="px"
     inkscape:showpageshadow="false"
     showborder="true"
     inkscape:pagecheckerboard="false"
     borderlayer="false"
     inkscape:window-width="1600"
     inkscape:window-height="876"
     inkscape:window-x="1600"
     inkscape:window-y="24"
     inkscape:window-maximized="1"
     inkscape:object-paths="true"
     inkscape:snap-intersection-paths="true"
     inkscape:snap-others="true"
     inkscape:snap-smooth-nodes="true"
     inkscape:snap-bbox="false"
     inkscape:bbox-paths="false"
     inkscape:bbox-nodes="true"
     inkscape:snap-bbox-edge-midpoints="false"
     inkscape:snap-bbox-midpoints="false"
     fit-margin-top="0"
     fit-margin-left="0"
     fit-margin-right="0"
     fit-margin-bottom="0" />
  <metadata
     id="metadata4078">
    <rdf:RDF>
      <cc:Work
         rdf:about="">
        <dc:format>image/svg+xml</dc:format>
        <dc:type
           rdf:resource="http://purl.org/dc/dcmitype/StillImage" />
        <dc:title></dc:title>
      </cc:Work>
    </rdf:RDF>
  </metadata>
  <g
     inkscape:label="Layer 1"
     inkscape:groupmode="layer"
     id="layer1"
     transform="translate(-123.12834,16.64698)"
     style="opacity:1">
    <g
       id="g4910"
       transform="matrix(1.5948259,-1.0493019,1.0506959,1.59271,-174.09777,97.02805)">
      <path
         inkscape:transform-center-y="-3.0635254e-06"
         d="M 106.41639,71.528136 90.406654,80.77136 74.39692,71.528136 l 1e-6,-18.486448 16.009733,-9.243224 16.009736,9.243224 z"
         inkscape:randomized="0"
         inkscape:rounded="0"
         inkscape:flatsided="true"
         sodipodi:arg2="1.0471976"
         sodipodi:arg1="0.52359878"
         sodipodi:r2="16.009733"
         sodipodi:r1="18.486448"
         sodipodi:cy="62.284912"
         sodipodi:cx="90.406654"
         sodipodi:sides="6"
         id="path4845"
         style="opacity:1;fill:#9f2831;fill-opacity:1;stroke-width:0.12389649"
         sodipodi:type="star"
         transform="matrix(0.68459354,0,0,0.78015102,91.858535,34.839387)"
         inkscape:transform-center-x="-2.2962146e-06" />
      <path
         inkscape:connector-curvature="0"
         id="path4847"
         d="m 148.19447,94.110074 -5.22647,-3.47077 -0.0408,-7.20081 -0.0408,-7.20082 5.29407,-3.4662 c 2.91173,-1.9064 5.33985,-3.46619 5.39582,-3.46619 0.056,0 0.10176,6.37096 0.10176,14.1577 0,7.78673 -0.0578,14.14872 -0.12852,14.13776 -0.0707,-0.011 -2.48044,-1.58175 -5.355,-3.49067 z"
         style="opacity:1;fill:#cc333f;fill-opacity:1;stroke-width:0.18292867" />
      <g
         id="g4853"
         transform="matrix(0.68459354,0,0,0.78015102,115.81577,34.831921)">
        <path
           inkscape:transform-center-y="-2.0642857e-06"
           d="M 106.41639,71.528136 90.406654,80.77136 74.39692,71.528136 l 1e-6,-18.486448 16.009733,-9.243224 16.009736,9.243224 z"
           inkscape:randomized="0"
           inkscape:rounded="0"
           inkscape:flatsided="true"
           sodipodi:arg2="1.0471976"
           sodipodi:arg1="0.52359878"
           sodipodi:r2="16.009733"
           sodipodi:r1="18.486448"
           sodipodi:cy="62.284912"
           sodipodi:cx="90.406654"
           sodipodi:sides="6"
           id="path4849"
           style="opacity:1;fill:#9f2831;fill-opacity:1;stroke-width:0.12389649"
           sodipodi:type="star" />
        <path
           inkscape:connector-curvature="0"
           id="path4851"
           d="m 82.291075,75.973342 -7.634415,-4.448837 -0.05964,-9.230028 -0.05964,-9.230028 7.73315,-4.44298 c 4.253233,-2.44364 7.800038,-4.44298 7.881789,-4.44298 0.08175,0 0.14864,8.166322 0.14864,18.147382 0,9.981061 -0.08448,18.135892 -0.187732,18.121844 -0.103253,-0.01404 -3.623219,-2.027513 -7.822149,-4.474373 z"
           style="opacity:1;fill:#cc333f;fill-opacity:1;stroke-width:0.25030875" />
      </g>
      <g
         transform="matrix(0.68459354,0,0,0.78015102,139.91,34.831921)"
         id="g4859">
        <path
           sodipodi:type="star"
           style="opacity:1;fill:#9f2831;fill-opacity:1;stroke-width:0.12389649"
           id="path4855"
           sodipodi:sides="6"
           sodipodi:cx="90.406654"
           sodipodi:cy="62.284912"
           sodipodi:r1="18.486448"
           sodipodi:r2="16.009733"
           sodipodi:arg1="0.52359878"
           sodipodi:arg2="1.0471976"
           inkscape:flatsided="true"
           inkscape:rounded="0"
           inkscape:randomized="0"
           d="M 106.41639,71.528136 90.406654,80.77136 74.39692,71.528136 l 1e-6,-18.486448 16.009733,-9.243224 16.009736,9.243224 z"
           inkscape:transform-center-y="-2.0642857e-06" />
        <path
           style="opacity:1;fill:#cc333f;fill-opacity:1;stroke-width:0.25030875"
           d="m 82.291075,75.973342 -7.634415,-4.448837 -0.05964,-9.230028 -0.05964,-9.230028 7.73315,-4.44298 c 4.253233,-2.44364 7.800038,-4.44298 7.881789,-4.44298 0.08175,0 0.14864,8.166322 0.14864,18.147382 0,9.981061 -0.08448,18.135892 -0.187732,18.121844 -0.103253,-0.01404 -3.623219,-2.027513 -7.822149,-4.474373 z"
           id="path4857"
           inkscape:connector-curvature="0" />
      </g>
      <g
         id="g4865"
         transform="matrix(0.68459354,0,0,0.78015102,103.69287,58.501554)">
        <path
           inkscape:transform-center-y="-2.0642857e-06"
           d="M 106.41639,71.528136 90.406654,80.77136 74.39692,71.528136 l 1e-6,-18.486448 16.009733,-9.243224 16.009736,9.243224 z"
           inkscape:randomized="0"
           inkscape:rounded="0"
           inkscape:flatsided="true"
           sodipodi:arg2="1.0471976"
           sodipodi:arg1="0.52359878"
           sodipodi:r2="16.009733"
           sodipodi:r1="18.486448"
           sodipodi:cy="62.284912"
           sodipodi:cx="90.406654"
           sodipodi:sides="6"
           id="path4861"
           style="opacity:1;fill:#9f2831;fill-opacity:1;stroke-width:0.12389649"
           sodipodi:type="star" />
        <path
           inkscape:connector-curvature="0"
           id="path4863"
           d="m 82.291075,75.973342 -7.634415,-4.448837 -0.05964,-9.230028 -0.05964,-9.230028 7.73315,-4.44298 c 4.253233,-2.44364 7.800038,-4.44298 7.881789,-4.44298 0.08175,0 0.14864,8.166322 0.14864,18.147382 0,9.981061 -0.08448,18.135892 -0.187732,18.121844 -0.103253,-0.01404 -3.623219,-2.027513 -7.822149,-4.474373 z"
           style="opacity:1;fill:#cc333f;fill-opacity:1;stroke-width:0.25030875" />
      </g>
      <g
         transform="matrix(0.68459354,0,0,0.78015102,127.65011,58.494084)"
         id="g4871">
        <path
           sodipodi:type="star"
           style="opacity:1;fill:#9f2831;fill-opacity:1;stroke-width:0.12389649"
           id="path4867"
           sodipodi:sides="6"
           sodipodi:cx="90.406654"
           sodipodi:cy="62.284912"
           sodipodi:r1="18.486448"
           sodipodi:r2="16.009733"
           sodipodi:arg1="0.52359878"
           sodipodi:arg2="1.0471976"
           inkscape:flatsided="true"
           inkscape:rounded="0"
           inkscape:randomized="0"
           d="M 106.41639,71.528136 90.406654,80.77136 74.39692,71.528136 l 1e-6,-18.486448 16.009733,-9.243224 16.009736,9.243224 z"
           inkscape:transform-center-y="-2.0642857e-06" />
        <path
           style="opacity:1;fill:#cc333f;fill-opacity:1;stroke-width:0.25030875"
           d="m 82.291075,75.973342 -7.634415,-4.448837 -0.05964,-9.230028 -0.05964,-9.230028 7.73315,-4.44298 c 4.253233,-2.44364 7.800038,-4.44298 7.881789,-4.44298 0.08175,0 0.14864,8.166322 0.14864,18.147382 0,9.981061 -0.08448,18.135892 -0.187732,18.121844 -0.103253,-0.01404 -3.623219,-2.027513 -7.822149,-4.474373 z"
           id="path4869"
           inkscape:connector-curvature="0" />
      </g>
      <g
         transform="matrix(0.68459354,0,0,0.78015102,115.5272,82.163714)"
         id="g4877">
        <path
           sodipodi:type="star"
           style="opacity:1;fill:#9f2831;fill-opacity:1;stroke-width:0.12389649"
           id="path4873"
           sodipodi:sides="6"
           sodipodi:cx="90.406654"
           sodipodi:cy="62.284912"
           sodipodi:r1="18.486448"
           sodipodi:r2="16.009733"
           sodipodi:arg1="0.52359878"
           sodipodi:arg2="1.0471976"
           inkscape:flatsided="true"
           inkscape:rounded="0"
           inkscape:randomized="0"
           d="M 106.41639,71.528136 90.406654,80.77136 74.39692,71.528136 l 1e-6,-18.486448 16.009733,-9.243224 16.009736,9.243224 z"
           inkscape:transform-center-y="-2.0642857e-06" />
        <path
           style="opacity:1;fill:#cc333f;fill-opacity:1;stroke-width:0.25030875"
           d="m 82.291075,75.973342 -7.634415,-4.448837 -0.05964,-9.230028 -0.05964,-9.230028 7.73315,-4.44298 c 4.253233,-2.44364 7.800038,-4.44298 7.881789,-4.44298 0.08175,0 0.14864,8.166322 0.14864,18.147382 0,9.981061 -0.08448,18.135892 -0.187732,18.121844 -0.103253,-0.01404 -3.623219,-2.027513 -7.822149,-4.474373 z"
           id="path4875"
           inkscape:connector-curvature="0" />
      </g>
      <path
         style="fill:#2460a1;fill-opacity:1;stroke:#000000;stroke-width:0;stroke-linecap:butt;stroke-linejoin:miter;stroke-miterlimit:4;stroke-dasharray:none;stroke-opacity:1"
         d="m 154.8373,67.921854 h 21.92032 l -10.96016,7.2111 z"
         id="path4879"
         inkscape:connector-curvature="0" />
      <path
         inkscape:connector-curvature="0"
         id="path4881"
         d="m 178.79454,67.914374 h 21.92032 l -10.96015,7.21111 z"
         style="fill:#2460a1;fill-opacity:1;stroke:#000000;stroke-width:0;stroke-linecap:butt;stroke-linejoin:miter;stroke-miterlimit:4;stroke-dasharray:none;stroke-opacity:1" />
      <path
         inkscape:connector-curvature="0"
         id="path4883"
         d="m 177.23743,46.001524 v 21.92033 l -7.21111,-10.96017 z"
         style="fill:#2460a1;fill-opacity:1;stroke:#000000;stroke-width:0;stroke-linecap:butt;stroke-linejoin:miter;stroke-miterlimit:4;stroke-dasharray:none;stroke-opacity:1" />
      <path
         style="fill:#2460a1;fill-opacity:1;stroke:#000000;stroke-width:0;stroke-linecap:butt;stroke-linejoin:miter;stroke-miterlimit:4;stroke-dasharray:none;stroke-opacity:1"
         d="m 178.15856,46.001524 v 21.92033 l 7.21112,-10.96017 z"
         id="path4885"
         inkscape:connector-curvature="0" />
    </g>
  </g>
</svg>
