<?xml version="1.0" encoding="UTF-8" standalone="no"?>
<!-- Created with Inkscape (http://www.inkscape.org/) -->

<svg
   xmlns:dc="http://purl.org/dc/elements/1.1/"
   xmlns:cc="http://creativecommons.org/ns#"
   xmlns:rdf="http://www.w3.org/1999/02/22-rdf-syntax-ns#"
   xmlns:svg="http://www.w3.org/2000/svg"
   xmlns="http://www.w3.org/2000/svg"
   xmlns:sodipodi="http://sodipodi.sourceforge.net/DTD/sodipodi-0.dtd"
   xmlns:inkscape="http://www.inkscape.org/namespaces/inkscape"
   width="2384.5068"
   height="600"
   viewBox="0 0 630.90078 158.75001"
   version="1.1"
   id="svg4081"
   inkscape:version="0.92.1 r15371"
   sodipodi:docname="logotipo-white.svg"
   inkscape:export-filename="D:\dev\diakonia\public\img\logotipo-white-h70px.png"
   inkscape:export-xdpi="11.2"
   inkscape:export-ydpi="11.2">
  <defs
     id="defs4075" />
  <sodipodi:namedview
     id="base"
     pagecolor="#ffffff"
     bordercolor="#6666c8"
     borderopacity="1"
     inkscape:pageopacity="0"
     inkscape:pageshadow="2"
     inkscape:zoom="1.0432337"
     inkscape:cx="303.69153"
     inkscape:cy="305.07968"
     inkscape:document-units="px"
     inkscape:current-layer="layer1"
     showgrid="false"
     inkscape:snap-global="true"
     inkscape:snap-grids="false"
     inkscape:snap-to-guides="true"
     inkscape:snap-midpoints="true"
     units="px"
     inkscape:showpageshadow="false"
     showborder="true"
     inkscape:pagecheckerboard="false"
     borderlayer="false"
     inkscape:window-width="1920"
     inkscape:window-height="1017"
     inkscape:window-x="1912"
     inkscape:window-y="59"
     inkscape:window-maximized="1"
     inkscape:object-paths="true"
     inkscape:snap-intersection-paths="true"
     inkscape:snap-others="false"
     inkscape:snap-smooth-nodes="true"
     inkscape:snap-bbox="false"
     inkscape:bbox-paths="false"
     inkscape:bbox-nodes="true"
     inkscape:snap-bbox-edge-midpoints="false"
     inkscape:snap-bbox-midpoints="false"
     fit-margin-top="0"
     fit-margin-left="0"
     fit-margin-right="0"
     fit-margin-bottom="0"
     showguides="false"
     inkscape:guide-bbox="true"
     inkscape:snap-nodes="false">
    <sodipodi:guide
       position="108.33417,35.894595"
       orientation="1,0"
       id="guide4890"
       inkscape:locked="false" />
    <sodipodi:guide
       position="269.72034,15.230536"
       orientation="0,1"
       id="guide4903"
       inkscape:locked="false" />
    <sodipodi:guide
       position="219.46209,142.08848"
       orientation="0,1"
       id="guide4905"
       inkscape:locked="false" />
  </sodipodi:namedview>
  <metadata
     id="metadata4078">
    <rdf:RDF>
      <cc:Work
         rdf:about="">
        <dc:format>image/svg+xml</dc:format>
        <dc:type
           rdf:resource="http://purl.org/dc/dcmitype/StillImage" />
        <dc:title></dc:title>
      </cc:Work>
    </rdf:RDF>
  </metadata>
  <g
     inkscape:label="Layer 1"
     inkscape:groupmode="layer"
     id="layer1"
     transform="translate(-181.0562,-19.16886)"
     style="opacity:1">
    <path
       inkscape:transform-center-y="-3.0635254e-006"
       d="M 106.41639,71.528136 90.406654,80.77136 74.39692,71.528136 l 1e-6,-18.486448 16.009733,-9.243224 16.009736,9.243224 z"
       inkscape:randomized="0"
       inkscape:rounded="0"
       inkscape:flatsided="true"
       sodipodi:arg2="1.0471976"
       sodipodi:arg1="0.52359878"
       sodipodi:r2="16.009733"
       sodipodi:r1="18.486448"
       sodipodi:cy="62.284912"
       sodipodi:cx="90.406654"
       sodipodi:sides="6"
       id="path4570"
       style="opacity:1;fill:#ffffff;fill-opacity:0.82352942;stroke-width:0.12389649"
       sodipodi:type="star"
       transform="matrix(1.0918075,-0.7183453,0.81970148,1.2425543,56.350732,91.945595)"
       inkscape:transform-center-x="-2.2962146e-006" />
    <path
       inkscape:connector-curvature="0"
       id="path4572"
       d="m 208.47221,127.23321 -11.98204,-0.0438 -7.63093,-11.42599 -7.63094,-11.42601 4.8012,-11.075724 c 2.64066,-6.091627 4.87422,-11.123751 4.96348,-11.18248 0.0893,-0.05876 6.85623,10.040315 15.03773,22.442334 8.18148,12.402 14.77382,22.59546 14.64952,22.65221 -0.12431,0.0567 -5.61781,0.0835 -12.20793,0.0594 z"
       style="opacity:1;fill:#ffffff;fill-opacity:1;stroke-width:0.34912992" />
    <path
       sodipodi:type="star"
       style="opacity:1;fill:#ffffff;fill-opacity:0.82352942;stroke-width:0.12389649"
       id="path4574"
       sodipodi:sides="6"
       sodipodi:cx="90.406654"
       sodipodi:cy="62.284912"
       sodipodi:r1="18.486448"
       sodipodi:r2="16.009733"
       sodipodi:arg1="0.52359878"
       sodipodi:arg2="1.0471976"
       inkscape:flatsided="true"
       inkscape:rounded="0"
       inkscape:randomized="0"
       d="M 106.41639,71.528136 90.406654,80.77136 74.39692,71.528136 l 1e-6,-18.486448 16.009733,-9.243224 16.009736,9.243224 z"
       inkscape:transform-center-y="-2.0642857e-006"
       transform="matrix(1.0918075,-0.7183453,0.81970148,1.2425543,94.550506,66.795331)" />
    <path
       style="opacity:1;fill:#ffffff;fill-opacity:1;stroke-width:0.34912992"
       d="m 246.67198,102.08293 -11.98203,-0.0438 -7.63098,-11.425967 -7.63099,-11.425969 4.8012,-11.075716 c 2.64065,-6.091646 4.87422,-11.123765 4.96348,-11.18249 0.0893,-0.05873 6.85623,10.040324 15.03772,22.442333 8.18149,12.40201 14.77378,22.595519 14.64953,22.652229 -0.12424,0.0567 -5.61781,0.0834 -12.20793,0.0593 z"
       id="path4576"
       inkscape:connector-curvature="0" />
    <path
       inkscape:transform-center-y="-2.0642857e-006"
       d="M 106.41639,71.528136 90.406654,80.77136 74.39692,71.528136 l 1e-6,-18.486448 16.009733,-9.243224 16.009736,9.243224 z"
       inkscape:randomized="0"
       inkscape:rounded="0"
       inkscape:flatsided="true"
       sodipodi:arg2="1.0471976"
       sodipodi:arg1="0.52359878"
       sodipodi:r2="16.009733"
       sodipodi:r1="18.486448"
       sodipodi:cy="62.284912"
       sodipodi:cx="90.406654"
       sodipodi:sides="6"
       id="path4580"
       style="opacity:1;fill:#ffffff;fill-opacity:0.82352942;stroke-width:0.12389649"
       sodipodi:type="star"
       transform="matrix(1.0918075,-0.7183453,0.81970148,1.2425543,132.97661,41.51321)" />
    <path
       inkscape:connector-curvature="0"
       id="path4582"
       d="m 285.09808,76.800806 -11.98203,-0.04378 -7.63098,-11.425968 -7.63098,-11.425969 4.80119,-11.075716 c 2.64066,-6.091646 4.87422,-11.123765 4.96348,-11.18249 0.0893,-0.05872 6.85623,10.040324 15.03772,22.442333 8.18149,12.40201 14.77378,22.595516 14.64954,22.652231 -0.12424,0.05673 -5.61781,0.08343 -12.20793,0.05935 z"
       style="opacity:1;fill:#ffffff;fill-opacity:1;stroke-width:0.34912992" />
    <path
       sodipodi:type="star"
       style="opacity:1;fill:#ffffff;fill-opacity:0.82352942;stroke-width:0.12389649"
       id="path4586"
       sodipodi:sides="6"
       sodipodi:cx="90.406654"
       sodipodi:cy="62.284912"
       sodipodi:r1="18.486448"
       sodipodi:r2="16.009733"
       sodipodi:arg1="0.52359878"
       sodipodi:arg2="1.0471976"
       inkscape:flatsided="true"
       inkscape:rounded="0"
       inkscape:randomized="0"
       d="M 106.41639,71.528136 90.406654,80.77136 74.39692,71.528136 l 1e-6,-18.486448 16.009733,-9.243224 16.009736,9.243224 z"
       inkscape:transform-center-y="-2.0642857e-006"
       transform="matrix(1.0918075,-0.7183453,0.81970148,1.2425543,100.08618,117.21477)" />
    <path
       style="opacity:1;fill:#ffffff;fill-opacity:1;stroke-width:0.34912992"
       d="m 252.20765,152.50237 -11.98203,-0.0438 -7.63098,-11.42597 -7.63098,-11.42597 4.80119,-11.07571 c 2.64066,-6.09165 4.87422,-11.12377 4.96348,-11.18249 0.0893,-0.0587 6.85623,10.04032 15.03772,22.44233 8.18149,12.40201 14.77378,22.59552 14.64954,22.65223 -0.12424,0.0567 -5.61781,0.0834 -12.20793,0.0594 z"
       id="path4588"
       inkscape:connector-curvature="0" />
    <path
       inkscape:transform-center-y="-2.0642857e-006"
       d="M 106.41639,71.528136 90.406654,80.77136 74.39692,71.528136 l 1e-6,-18.486448 16.009733,-9.243224 16.009736,9.243224 z"
       inkscape:randomized="0"
       inkscape:rounded="0"
       inkscape:flatsided="true"
       sodipodi:arg2="1.0471976"
       sodipodi:arg1="0.52359878"
       sodipodi:r2="16.009733"
       sodipodi:r1="18.486448"
       sodipodi:cy="62.284912"
       sodipodi:cx="90.406654"
       sodipodi:sides="6"
       id="path4592"
       style="opacity:1;fill:#ffffff;fill-opacity:0.82352942;stroke-width:0.12389649"
       sodipodi:type="star"
       transform="matrix(1.0918075,-0.7183453,0.81970148,1.2425543,138.28596,92.0645)" />
    <path
       inkscape:connector-curvature="0"
       id="path4594"
       d="m 290.40743,127.3521 -11.98203,-0.0438 -7.63098,-11.42597 -7.63098,-11.42597 4.80119,-11.075713 c 2.64066,-6.091646 4.87422,-11.123765 4.96348,-11.18249 0.0893,-0.05872 6.85623,10.040324 15.03772,22.442333 8.18149,12.40201 14.77378,22.59552 14.64954,22.65223 -0.12424,0.0567 -5.61781,0.0834 -12.20793,0.0594 z"
       style="opacity:1;fill:#ffffff;fill-opacity:1;stroke-width:0.34912992" />
    <path
       inkscape:transform-center-y="-2.0642857e-006"
       d="M 106.41639,71.528136 90.406654,80.77136 74.39692,71.528136 l 1e-6,-18.486448 16.009733,-9.243224 16.009736,9.243224 z"
       inkscape:randomized="0"
       inkscape:rounded="0"
       inkscape:flatsided="true"
       sodipodi:arg2="1.0471976"
       sodipodi:arg1="0.52359878"
       sodipodi:r2="16.009733"
       sodipodi:r1="18.486448"
       sodipodi:cy="62.284912"
       sodipodi:cx="90.406654"
       sodipodi:sides="6"
       id="path4598"
       style="opacity:1;fill:#ffffff;fill-opacity:0.82352942;stroke-width:0.12389649"
       sodipodi:type="star"
       transform="matrix(1.0918075,-0.7183453,0.81970148,1.2425543,143.82161,142.48395)" />
    <path
       inkscape:connector-curvature="0"
       id="path4600"
       d="m 295.94308,177.77155 -11.98203,-0.0438 -7.63098,-11.42597 -7.63098,-11.42597 4.80119,-11.07571 c 2.64066,-6.09165 4.87422,-11.12377 4.96348,-11.18249 0.0893,-0.0587 6.85623,10.04032 15.03772,22.44233 8.18149,12.40201 14.77378,22.59552 14.64954,22.65223 -0.12424,0.0567 -5.61781,0.0834 -12.20793,0.0593 z"
       style="opacity:1;fill:#ffffff;fill-opacity:1;stroke-width:0.34912992" />
    <path
       style="fill:#cc333f;fill-opacity:1;stroke:#000000;stroke-width:0;stroke-linecap:butt;stroke-linejoin:miter;stroke-miterlimit:4;stroke-dasharray:none;stroke-opacity:1"
       d="M 191.55051,78.552633 226.5096,55.5516 216.60673,78.537307 Z"
       id="path4604"
       inkscape:connector-curvature="0" />
    <path
       inkscape:connector-curvature="0"
       id="path4606"
       d="m 229.75028,53.402342 34.95909,-23.001033 -9.90285,22.985713 z"
       style="fill:#cc333f;fill-opacity:1;stroke:#000000;stroke-width:0;stroke-linecap:butt;stroke-linejoin:miter;stroke-miterlimit:4;stroke-dasharray:none;stroke-opacity:1" />
    <path
       inkscape:connector-curvature="0"
       id="path4608"
       d="m 204.24322,20.135405 23.0316,34.912729 -23.01627,-9.889741 z"
       style="fill:#cc333f;fill-opacity:1;stroke:#000000;stroke-width:0;stroke-linecap:butt;stroke-linejoin:miter;stroke-miterlimit:4;stroke-dasharray:none;stroke-opacity:1" />
    <path
       style="fill:#cc333f;fill-opacity:1;stroke:#000000;stroke-width:0;stroke-linecap:butt;stroke-linejoin:miter;stroke-miterlimit:4;stroke-dasharray:none;stroke-opacity:1"
       d="m 205.71226,19.168862 23.0316,34.912729 -0.0153,-25.023015 z"
       id="path4610"
       inkscape:connector-curvature="0" />
    <text
       id="text4616"
       y="163.44511"
       x="329.15289"
       style="font-style:normal;font-variant:normal;font-weight:normal;font-stretch:normal;font-size:33.30442429px;line-height:1.25;font-family:BenchNine;-inkscape-font-specification:BenchNine;letter-spacing:0px;word-spacing:0px;fill:#ffffff;fill-opacity:1;stroke:none;stroke-width:0.83261067;"
       xml:space="preserve"><tspan
         style="font-style:normal;font-variant:normal;font-weight:300;font-stretch:normal;font-size:179.77868652px;font-family:BenchNine;-inkscape-font-specification:'BenchNine Light';letter-spacing:0px;fill:#ffffff;fill-opacity:1;stroke-width:0.83261067;"
         y="163.44511"
         x="329.15289"
         id="tspan4614"
         sodipodi:role="line">DIAKONIA</tspan></text>
  </g>
</svg>
