<?xml version="1.0" encoding="UTF-8" standalone="no"?>
<!-- Created with Inkscape (http://www.inkscape.org/) -->

<svg
   xmlns:dc="http://purl.org/dc/elements/1.1/"
   xmlns:cc="http://creativecommons.org/ns#"
   xmlns:rdf="http://www.w3.org/1999/02/22-rdf-syntax-ns#"
   xmlns:svg="http://www.w3.org/2000/svg"
   xmlns="http://www.w3.org/2000/svg"
   xmlns:sodipodi="http://sodipodi.sourceforge.net/DTD/sodipodi-0.dtd"
   xmlns:inkscape="http://www.inkscape.org/namespaces/inkscape"
   width="600"
   height="600"
   viewBox="0 0 158.75 158.75001"
   version="1.1"
   id="svg4081"
   inkscape:version="0.92.2 (unknown)"
   sodipodi:docname="logo-favicon-white-oppa.svg"
   inkscape:export-filename="/home/00448406160/dev/diakonia/public/img/logo-white-oppa.png"
   inkscape:export-xdpi="7.6799998"
   inkscape:export-ydpi="7.6799998">
  <defs
     id="defs4075" />
  <sodipodi:namedview
     id="base"
     pagecolor="#ffffff"
     bordercolor="#6666c8"
     borderopacity="1"
     inkscape:pageopacity="0"
     inkscape:pageshadow="2"
     inkscape:zoom="0.80694735"
     inkscape:cx="194.93018"
     inkscape:cy="233.23502"
     inkscape:document-units="px"
     inkscape:current-layer="layer1"
     showgrid="false"
     inkscape:snap-global="false"
     inkscape:snap-grids="false"
     inkscape:snap-to-guides="false"
     inkscape:snap-midpoints="true"
     units="px"
     inkscape:showpageshadow="false"
     showborder="true"
     inkscape:pagecheckerboard="false"
     borderlayer="false"
     inkscape:window-width="1547"
     inkscape:window-height="876"
     inkscape:window-x="53"
     inkscape:window-y="24"
     inkscape:window-maximized="1"
     inkscape:object-paths="true"
     inkscape:snap-intersection-paths="true"
     inkscape:snap-others="true"
     inkscape:snap-smooth-nodes="true"
     inkscape:snap-bbox="false"
     inkscape:bbox-paths="false"
     inkscape:bbox-nodes="true"
     inkscape:snap-bbox-edge-midpoints="false"
     inkscape:snap-bbox-midpoints="false"
     fit-margin-top="0"
     fit-margin-left="0"
     fit-margin-right="0"
     fit-margin-bottom="0" />
  <metadata
     id="metadata4078">
    <rdf:RDF>
      <cc:Work
         rdf:about="">
        <dc:format>image/svg+xml</dc:format>
        <dc:type
           rdf:resource="http://purl.org/dc/dcmitype/StillImage" />
        <dc:title />
      </cc:Work>
    </rdf:RDF>
  </metadata>
  <g
     inkscape:label="Layer 1"
     inkscape:groupmode="layer"
     id="layer1"
     transform="translate(-123.12834,16.64698)"
     style="opacity:1">
    <path
       inkscape:transform-center-x="-2.2962146e-06"
       transform="matrix(1.0918075,-0.7183453,0.81970148,1.2425543,9.0062018,56.129755)"
       sodipodi:type="star"
       style="opacity:1;fill:#ffffff;fill-opacity:0.46105918;stroke-width:0.12389649"
       id="path4845"
       sodipodi:sides="6"
       sodipodi:cx="90.406654"
       sodipodi:cy="62.284912"
       sodipodi:r1="18.486448"
       sodipodi:r2="16.009733"
       sodipodi:arg1="0.52359878"
       sodipodi:arg2="1.0471976"
       inkscape:flatsided="true"
       inkscape:rounded="0"
       inkscape:randomized="0"
       d="M 106.41639,71.528136 90.406654,80.77136 74.39692,71.528136 l 1e-6,-18.486448 16.009733,-9.243224 16.009736,9.243224 z"
       inkscape:transform-center-y="-3.0635254e-06" />
    <path
       style="opacity:1;fill:#ffffff;fill-opacity:0.45171338;stroke-width:0.34912992"
       d="m 161.12768,91.417367 -11.98204,-0.04378 -7.63093,-11.425991 -7.63094,-11.426006 4.8012,-11.075729 c 2.64066,-6.091627 4.87422,-11.123751 4.96348,-11.18248 0.0893,-0.05876 6.85623,10.040315 15.03773,22.442333 8.18148,12.402003 14.77382,22.595458 14.64952,22.652208 -0.12431,0.05667 -5.61781,0.08346 -12.20793,0.05939 z"
       id="path4847"
       inkscape:connector-curvature="0" />
    <path
       inkscape:transform-center-y="-2.0642857e-06"
       d="M 106.41639,71.528136 90.406654,80.77136 74.39692,71.528136 l 1e-6,-18.486448 16.009733,-9.243224 16.009736,9.243224 z"
       inkscape:randomized="0"
       inkscape:rounded="0"
       inkscape:flatsided="true"
       sodipodi:arg2="1.0471976"
       sodipodi:arg1="0.52359878"
       sodipodi:r2="16.009733"
       sodipodi:r1="18.486448"
       sodipodi:cy="62.284912"
       sodipodi:cx="90.406654"
       sodipodi:sides="6"
       id="path4849"
       style="opacity:1;fill:#ffffff;fill-opacity:0.46105918;stroke-width:0.12389649"
       sodipodi:type="star"
       transform="matrix(1.0918075,-0.7183453,0.81970148,1.2425543,47.205976,30.979491)" />
    <path
       inkscape:connector-curvature="0"
       id="path4851"
       d="m 199.32745,66.267087 -11.98203,-0.04378 -7.63098,-11.425968 -7.63099,-11.425969 4.8012,-11.075716 c 2.64065,-6.091646 4.87422,-11.123765 4.96348,-11.18249 0.0892,-0.05873 6.85623,10.040324 15.03772,22.442333 8.18149,12.40201 14.77378,22.595516 14.64953,22.652231 -0.12424,0.05673 -5.61781,0.08343 -12.20793,0.05935 z"
       style="opacity:1;fill:#ffffff;fill-opacity:0.45171338;stroke-width:0.34912992" />
    <path
       sodipodi:type="star"
       style="opacity:1;fill:#ffffff;fill-opacity:0.46105918;stroke-width:0.12389649"
       id="path4855"
       sodipodi:sides="6"
       sodipodi:cx="90.406654"
       sodipodi:cy="62.284912"
       sodipodi:r1="18.486448"
       sodipodi:r2="16.009733"
       sodipodi:arg1="0.52359878"
       sodipodi:arg2="1.0471976"
       inkscape:flatsided="true"
       inkscape:rounded="0"
       inkscape:randomized="0"
       d="M 106.41639,71.528136 90.406654,80.77136 74.39692,71.528136 l 1e-6,-18.486448 16.009733,-9.243224 16.009736,9.243224 z"
       inkscape:transform-center-y="-2.0642857e-06"
       transform="matrix(1.0918075,-0.7183453,0.81970148,1.2425543,85.632078,5.6973701)" />
    <path
       style="opacity:1;fill:#ffffff;fill-opacity:0.45171338;stroke-width:0.34912992"
       d="m 237.75355,40.984966 -11.98203,-0.04377 -7.63098,-11.425969 -7.63098,-11.425969 4.80119,-11.0757161 c 2.64066,-6.0916453 4.87422,-11.1237645 4.96348,-11.18249 0.0893,-0.058725 6.85623,10.0403237 15.03772,22.4423331 8.18149,12.40201 14.77378,22.595516 14.64954,22.652231 -0.12424,0.05673 -5.61782,0.08343 -12.20793,0.05935 z"
       id="path4857"
       inkscape:connector-curvature="0" />
    <path
       inkscape:transform-center-y="-2.0642857e-06"
       d="M 106.41639,71.528136 90.406654,80.77136 74.39692,71.528136 l 1e-6,-18.486448 16.009733,-9.243224 16.009736,9.243224 z"
       inkscape:randomized="0"
       inkscape:rounded="0"
       inkscape:flatsided="true"
       sodipodi:arg2="1.0471976"
       sodipodi:arg1="0.52359878"
       sodipodi:r2="16.009733"
       sodipodi:r1="18.486448"
       sodipodi:cy="62.284912"
       sodipodi:cx="90.406654"
       sodipodi:sides="6"
       id="path4861"
       style="opacity:1;fill:#ffffff;fill-opacity:0.46105918;stroke-width:0.12389649"
       sodipodi:type="star"
       transform="matrix(1.0918075,-0.7183453,0.81970148,1.2425543,52.741648,81.398935)" />
    <path
       inkscape:connector-curvature="0"
       id="path4863"
       d="m 204.86312,116.68653 -11.98203,-0.0438 -7.63098,-11.42597 -7.63098,-11.425972 4.80119,-11.075716 c 2.64066,-6.091646 4.87422,-11.123765 4.96348,-11.18249 0.0892,-0.05872 6.85623,10.040324 15.03772,22.442333 8.18149,12.402005 14.77378,22.595515 14.64954,22.652235 -0.12424,0.0567 -5.61782,0.0834 -12.20793,0.0594 z"
       style="opacity:1;fill:#ffffff;fill-opacity:0.45171338;stroke-width:0.34912992" />
    <path
       sodipodi:type="star"
       style="opacity:1;fill:#ffffff;fill-opacity:0.46105918;stroke-width:0.12389649"
       id="path4867"
       sodipodi:sides="6"
       sodipodi:cx="90.406654"
       sodipodi:cy="62.284912"
       sodipodi:r1="18.486448"
       sodipodi:r2="16.009733"
       sodipodi:arg1="0.52359878"
       sodipodi:arg2="1.0471976"
       inkscape:flatsided="true"
       inkscape:rounded="0"
       inkscape:randomized="0"
       d="M 106.41639,71.528136 90.406654,80.77136 74.39692,71.528136 l 1e-6,-18.486448 16.009733,-9.243224 16.009736,9.243224 z"
       inkscape:transform-center-y="-2.0642857e-06"
       transform="matrix(1.0918075,-0.7183453,0.81970148,1.2425543,90.941426,56.24866)" />
    <path
       style="opacity:1;fill:#ffffff;fill-opacity:0.45171338;stroke-width:0.34912992"
       d="m 243.0629,91.536256 -11.98203,-0.04378 -7.63098,-11.425968 -7.63099,-11.425969 4.8012,-11.075716 c 2.64065,-6.091646 4.87422,-11.123765 4.96348,-11.18249 0.0892,-0.05873 6.85623,10.040324 15.03772,22.442333 8.18149,12.40201 14.77378,22.595516 14.64953,22.652231 -0.12424,0.05673 -5.61781,0.08343 -12.20793,0.05935 z"
       id="path4869"
       inkscape:connector-curvature="0" />
    <path
       sodipodi:type="star"
       style="opacity:1;fill:#ffffff;fill-opacity:0.46105918;stroke-width:0.12389649"
       id="path4873"
       sodipodi:sides="6"
       sodipodi:cx="90.406654"
       sodipodi:cy="62.284912"
       sodipodi:r1="18.486448"
       sodipodi:r2="16.009733"
       sodipodi:arg1="0.52359878"
       sodipodi:arg2="1.0471976"
       inkscape:flatsided="true"
       inkscape:rounded="0"
       inkscape:randomized="0"
       d="M 106.41639,71.528136 90.406654,80.77136 74.39692,71.528136 l 1e-6,-18.486448 16.009733,-9.243224 16.009736,9.243224 z"
       inkscape:transform-center-y="-2.0642857e-06"
       transform="matrix(1.0918075,-0.7183453,0.81970148,1.2425543,96.477078,106.66811)" />
    <path
       style="opacity:1;fill:#ffffff;fill-opacity:0.45171338;stroke-width:0.34912992"
       d="m 248.59855,141.95571 -11.98203,-0.0438 -7.63098,-11.42597 -7.63098,-11.42597 4.80119,-11.07571 c 2.64066,-6.09165 4.87422,-11.123768 4.96348,-11.182493 0.0893,-0.05873 6.85623,10.040323 15.03772,22.442333 8.18149,12.40201 14.77378,22.59552 14.64954,22.65223 -0.12424,0.0567 -5.61782,0.0834 -12.20793,0.0593 z"
       id="path4875"
       inkscape:connector-curvature="0" />
    <path
       inkscape:connector-curvature="0"
       id="path4879"
       d="M 144.20598,42.736793 179.16507,19.73576 169.2622,42.721467 Z"
       style="fill:#cccccc;fill-opacity:0.61682242;stroke:#000000;stroke-width:0;stroke-linecap:butt;stroke-linejoin:miter;stroke-miterlimit:4;stroke-dasharray:none;stroke-opacity:1" />
    <path
       style="fill:#cccccc;fill-opacity:0.61682242;stroke:#000000;stroke-width:0;stroke-linecap:butt;stroke-linejoin:miter;stroke-miterlimit:4;stroke-dasharray:none;stroke-opacity:1"
       d="M 182.40575,17.586502 217.36484,-5.4145313 207.46199,17.571182 Z"
       id="path4881"
       inkscape:connector-curvature="0" />
    <path
       style="fill:#cccccc;fill-opacity:0.61682242;stroke:#000000;stroke-width:0;stroke-linecap:butt;stroke-linejoin:miter;stroke-miterlimit:4;stroke-dasharray:none;stroke-opacity:1"
       d="m 156.89869,-15.680435 23.0316,34.912729 -23.01627,-9.8897409 z"
       id="path4883"
       inkscape:connector-curvature="0" />
    <path
       inkscape:connector-curvature="0"
       id="path4885"
       d="m 158.36773,-16.646978 23.0316,34.912729 -0.0153,-25.0230147 z"
       style="fill:#cccccc;fill-opacity:0.61682242;stroke:#000000;stroke-width:0;stroke-linecap:butt;stroke-linejoin:miter;stroke-miterlimit:4;stroke-dasharray:none;stroke-opacity:1" />
  </g>
</svg>
