<?xml version="1.0" encoding="UTF-8" standalone="no"?>
<!-- Created with Inkscape (http://www.inkscape.org/) -->

<svg
   xmlns:dc="http://purl.org/dc/elements/1.1/"
   xmlns:cc="http://creativecommons.org/ns#"
   xmlns:rdf="http://www.w3.org/1999/02/22-rdf-syntax-ns#"
   xmlns:svg="http://www.w3.org/2000/svg"
   xmlns="http://www.w3.org/2000/svg"
   xmlns:sodipodi="http://sodipodi.sourceforge.net/DTD/sodipodi-0.dtd"
   xmlns:inkscape="http://www.inkscape.org/namespaces/inkscape"
   width="1000"
   height="1000"
   viewBox="0 0 264.58333 264.58334"
   version="1.1"
   id="svg4081"
   inkscape:version="0.92.2 (unknown)"
   sodipodi:docname="logo.svg">
  <defs
     id="defs4075" />
  <sodipodi:namedview
     id="base"
     pagecolor="#ffffff"
     bordercolor="#6666c8"
     borderopacity="1"
     inkscape:pageopacity="0"
     inkscape:pageshadow="2"
     inkscape:zoom="0.718"
     inkscape:cx="363.44423"
     inkscape:cy="501.78344"
     inkscape:document-units="px"
     inkscape:current-layer="layer1"
     showgrid="false"
     inkscape:snap-global="true"
     inkscape:snap-grids="false"
     inkscape:snap-to-guides="false"
     inkscape:snap-midpoints="true"
     units="px"
     inkscape:showpageshadow="false"
     showborder="true"
     inkscape:pagecheckerboard="false"
     borderlayer="false"
     inkscape:window-width="1600"
     inkscape:window-height="876"
     inkscape:window-x="1600"
     inkscape:window-y="24"
     inkscape:window-maximized="1"
     inkscape:object-paths="true"
     inkscape:snap-intersection-paths="true"
     inkscape:snap-others="true"
     inkscape:snap-smooth-nodes="true"
     inkscape:snap-bbox="true"
     inkscape:bbox-paths="true"
     inkscape:bbox-nodes="true"
     inkscape:snap-bbox-edge-midpoints="false"
     inkscape:snap-bbox-midpoints="false" />
  <metadata
     id="metadata4078">
    <rdf:RDF>
      <cc:Work
         rdf:about="">
        <dc:format>image/svg+xml</dc:format>
        <dc:type
           rdf:resource="http://purl.org/dc/dcmitype/StillImage" />
        <dc:title />
      </cc:Work>
    </rdf:RDF>
  </metadata>
  <g
     inkscape:label="Layer 1"
     inkscape:groupmode="layer"
     id="layer1"
     transform="translate(0,-32.41665)"
     style="opacity:1">
    <g
       id="g4711">
      <path
         transform="matrix(0.66656822,0,0,0.75960969,56.342956,28.673397)"
         sodipodi:type="star"
         style="opacity:1;fill:#9f2831;fill-opacity:1;stroke-width:0.12389649"
         id="path4698"
         sodipodi:sides="6"
         sodipodi:cx="90.406654"
         sodipodi:cy="62.284912"
         sodipodi:r1="18.486448"
         sodipodi:r2="16.009733"
         sodipodi:arg1="0.52359878"
         sodipodi:arg2="1.0471976"
         inkscape:flatsided="true"
         inkscape:rounded="0"
         inkscape:randomized="0"
         d="M 106.41639,71.528136 90.406654,80.77136 74.39692,71.528136 l 1e-6,-18.486448 16.009733,-9.243224 16.009736,9.243224 z"
         inkscape:transform-center-y="-2.0642857e-06" />
      <path
         id="path4700"
         transform="matrix(0.26458333,0,0,0.26458333,0,32.41665)"
         d="M 441.85742 112.66016 C 441.72567 112.66016 441.61565 122.80503 441.54883 137.2168 L 481.04688 138.13281 L 462.46875 125.91016 L 461.71484 125.41602 C 450.99962 118.40041 442.06341 112.66016 441.85742 112.66016 z "
         style="opacity:1;fill:#cc333f;fill-opacity:1;stroke-width:0.67317981" />
    </g>
    <g
       id="g4717"
       transform="translate(22.930661)">
      <path
         inkscape:transform-center-y="-2.0642857e-06"
         d="M 106.41639,71.528136 90.406654,80.77136 74.39692,71.528136 l 1e-6,-18.486448 16.009733,-9.243224 16.009736,9.243224 z"
         inkscape:randomized="0"
         inkscape:rounded="0"
         inkscape:flatsided="true"
         sodipodi:arg2="1.0471976"
         sodipodi:arg1="0.52359878"
         sodipodi:r2="16.009733"
         sodipodi:r1="18.486448"
         sodipodi:cy="62.284912"
         sodipodi:cx="90.406654"
         sodipodi:sides="6"
         id="path4713"
         style="opacity:1;fill:#9f2831;fill-opacity:1;stroke-width:0.12389649"
         sodipodi:type="star"
         transform="matrix(0.66656822,0,0,0.75960969,56.342956,28.673397)" />
      <path
         style="opacity:1;fill:#cc333f;fill-opacity:1;stroke-width:0.67317981"
         d="m 441.85742,112.66016 c -0.13175,0 -0.24177,10.14487 -0.30859,24.55664 l 39.49805,0.91601 -18.57813,-12.22265 -0.75391,-0.49414 c -10.71522,-7.01561 -19.65143,-12.75586 -19.85742,-12.75586 z"
         transform="matrix(0.26458333,0,0,0.26458333,0,32.41665)"
         id="path4715"
         inkscape:connector-curvature="0" />
    </g>
    <g
       transform="translate(45.861322)"
       id="g4723">
      <path
         transform="matrix(0.66656822,0,0,0.75960969,56.342956,28.673397)"
         sodipodi:type="star"
         style="opacity:1;fill:#9f2831;fill-opacity:1;stroke-width:0.12389649"
         id="path4719"
         sodipodi:sides="6"
         sodipodi:cx="90.406654"
         sodipodi:cy="62.284912"
         sodipodi:r1="18.486448"
         sodipodi:r2="16.009733"
         sodipodi:arg1="0.52359878"
         sodipodi:arg2="1.0471976"
         inkscape:flatsided="true"
         inkscape:rounded="0"
         inkscape:randomized="0"
         d="M 106.41639,71.528136 90.406654,80.77136 74.39692,71.528136 l 1e-6,-18.486448 16.009733,-9.243224 16.009736,9.243224 z"
         inkscape:transform-center-y="-2.0642857e-06" />
      <path
         inkscape:connector-curvature="0"
         id="path4721"
         transform="matrix(0.26458333,0,0,0.26458333,0,32.41665)"
         d="m 441.85742,112.66016 c -0.13175,0 -0.24177,10.14487 -0.30859,24.55664 l 39.49805,0.91601 -18.57813,-12.22265 -0.75391,-0.49414 c -10.71522,-7.01561 -19.65143,-12.75586 -19.85742,-12.75586 z"
         style="opacity:1;fill:#cc333f;fill-opacity:1;stroke-width:0.67317981" />
    </g>
    <g
       id="g4729"
       transform="translate(12.03798,22.505346)">
      <path
         inkscape:transform-center-y="-2.0642857e-06"
         d="M 106.41639,71.528136 90.406654,80.77136 74.39692,71.528136 l 1e-6,-18.486448 16.009733,-9.243224 16.009736,9.243224 z"
         inkscape:randomized="0"
         inkscape:rounded="0"
         inkscape:flatsided="true"
         sodipodi:arg2="1.0471976"
         sodipodi:arg1="0.52359878"
         sodipodi:r2="16.009733"
         sodipodi:r1="18.486448"
         sodipodi:cy="62.284912"
         sodipodi:cx="90.406654"
         sodipodi:sides="6"
         id="path4725"
         style="opacity:1;fill:#9f2831;fill-opacity:1;stroke-width:0.12389649"
         sodipodi:type="star"
         transform="matrix(0.66656822,0,0,0.75960969,56.342956,28.673397)" />
      <path
         style="opacity:1;fill:#cc333f;fill-opacity:1;stroke-width:0.67317981"
         d="m 441.85742,112.66016 c -0.13175,0 -0.24177,10.14487 -0.30859,24.55664 l 39.49805,0.91601 -18.57813,-12.22265 -0.75391,-0.49414 c -10.71522,-7.01561 -19.65143,-12.75586 -19.85742,-12.75586 z"
         transform="matrix(0.26458333,0,0,0.26458333,0,32.41665)"
         id="path4727"
         inkscape:connector-curvature="0" />
    </g>
    <g
       transform="translate(34.968641,22.505346)"
       id="g4735">
      <path
         transform="matrix(0.66656822,0,0,0.75960969,56.342956,28.673397)"
         sodipodi:type="star"
         style="opacity:1;fill:#9f2831;fill-opacity:1;stroke-width:0.12389649"
         id="path4731"
         sodipodi:sides="6"
         sodipodi:cx="90.406654"
         sodipodi:cy="62.284912"
         sodipodi:r1="18.486448"
         sodipodi:r2="16.009733"
         sodipodi:arg1="0.52359878"
         sodipodi:arg2="1.0471976"
         inkscape:flatsided="true"
         inkscape:rounded="0"
         inkscape:randomized="0"
         d="M 106.41639,71.528136 90.406654,80.77136 74.39692,71.528136 l 1e-6,-18.486448 16.009733,-9.243224 16.009736,9.243224 z"
         inkscape:transform-center-y="-2.0642857e-06" />
      <path
         inkscape:connector-curvature="0"
         id="path4733"
         transform="matrix(0.26458333,0,0,0.26458333,0,32.41665)"
         d="m 441.85742,112.66016 c -0.13175,0 -0.24177,10.14487 -0.30859,24.55664 l 39.49805,0.91601 -18.57813,-12.22265 -0.75391,-0.49414 c -10.71522,-7.01561 -19.65143,-12.75586 -19.85742,-12.75586 z"
         style="opacity:1;fill:#cc333f;fill-opacity:1;stroke-width:0.67317981" />
    </g>
    <g
       transform="translate(23.464945,44.875059)"
       id="g4741">
      <path
         transform="matrix(0.66656822,0,0,0.75960969,56.342956,28.673397)"
         sodipodi:type="star"
         style="opacity:1;fill:#9f2831;fill-opacity:1;stroke-width:0.12389649"
         id="path4737"
         sodipodi:sides="6"
         sodipodi:cx="90.406654"
         sodipodi:cy="62.284912"
         sodipodi:r1="18.486448"
         sodipodi:r2="16.009733"
         sodipodi:arg1="0.52359878"
         sodipodi:arg2="1.0471976"
         inkscape:flatsided="true"
         inkscape:rounded="0"
         inkscape:randomized="0"
         d="M 106.41639,71.528136 90.406654,80.77136 74.39692,71.528136 l 1e-6,-18.486448 16.009733,-9.243224 16.009736,9.243224 z"
         inkscape:transform-center-y="-2.0642857e-06" />
      <path
         inkscape:connector-curvature="0"
         id="path4739"
         transform="matrix(0.26458333,0,0,0.26458333,0,32.41665)"
         d="m 441.85742,112.66016 c -0.13175,0 -0.24177,10.14487 -0.30859,24.55664 l 39.49805,0.91601 -18.57813,-12.22265 -0.75391,-0.49414 c -10.71522,-7.01561 -19.65143,-12.75586 -19.85742,-12.75586 z"
         style="opacity:1;fill:#cc333f;fill-opacity:1;stroke-width:0.67317981" />
    </g>
    <g
       transform="matrix(0.66656822,0,0,0.75960969,-26.552563,152.70433)"
       id="g4747">
      <path
         sodipodi:type="star"
         style="opacity:1;fill:#9f2831;fill-opacity:1;stroke-width:0.12389649"
         id="path4743"
         sodipodi:sides="6"
         sodipodi:cx="90.406654"
         sodipodi:cy="62.284912"
         sodipodi:r1="18.486448"
         sodipodi:r2="16.009733"
         sodipodi:arg1="0.52359878"
         sodipodi:arg2="1.0471976"
         inkscape:flatsided="true"
         inkscape:rounded="0"
         inkscape:randomized="0"
         d="M 106.41639,71.528136 90.406654,80.77136 74.39692,71.528136 l 1e-6,-18.486448 16.009733,-9.243224 16.009736,9.243224 z"
         inkscape:transform-center-y="-2.0642857e-06" />
      <path
         style="opacity:1;fill:#cc333f;fill-opacity:1;stroke-width:0.25030875"
         d="m 82.291075,75.973342 -7.634415,-4.448837 -0.05964,-9.230028 -0.05964,-9.230028 7.73315,-4.44298 c 4.253233,-2.44364 7.800038,-4.44298 7.881789,-4.44298 0.08175,0 0.14864,8.166322 0.14864,18.147382 0,9.981061 -0.08448,18.135892 -0.187732,18.121844 -0.103253,-0.01404 -3.623219,-2.027513 -7.822149,-4.474373 z"
         id="path4745"
         inkscape:connector-curvature="0" />
    </g>
    <g
       id="g4753"
       transform="matrix(0.66656822,0,0,0.75960969,-3.2261166,152.69706)">
      <path
         inkscape:transform-center-y="-2.0642857e-06"
         d="M 106.41639,71.528136 90.406654,80.77136 74.39692,71.528136 l 1e-6,-18.486448 16.009733,-9.243224 16.009736,9.243224 z"
         inkscape:randomized="0"
         inkscape:rounded="0"
         inkscape:flatsided="true"
         sodipodi:arg2="1.0471976"
         sodipodi:arg1="0.52359878"
         sodipodi:r2="16.009733"
         sodipodi:r1="18.486448"
         sodipodi:cy="62.284912"
         sodipodi:cx="90.406654"
         sodipodi:sides="6"
         id="path4749"
         style="opacity:1;fill:#9f2831;fill-opacity:1;stroke-width:0.12389649"
         sodipodi:type="star" />
      <path
         inkscape:connector-curvature="0"
         id="path4751"
         d="m 82.291075,75.973342 -7.634415,-4.448837 -0.05964,-9.230028 -0.05964,-9.230028 7.73315,-4.44298 c 4.253233,-2.44364 7.800038,-4.44298 7.881789,-4.44298 0.08175,0 0.14864,8.166322 0.14864,18.147382 0,9.981061 -0.08448,18.135892 -0.187732,18.121844 -0.103253,-0.01404 -3.623219,-2.027513 -7.822149,-4.474373 z"
         style="opacity:1;fill:#cc333f;fill-opacity:1;stroke-width:0.25030875" />
    </g>
    <g
       transform="matrix(0.66656822,0,0,0.75960969,20.233712,152.69706)"
       id="g4759">
      <path
         sodipodi:type="star"
         style="opacity:1;fill:#9f2831;fill-opacity:1;stroke-width:0.12389649"
         id="path4755"
         sodipodi:sides="6"
         sodipodi:cx="90.406654"
         sodipodi:cy="62.284912"
         sodipodi:r1="18.486448"
         sodipodi:r2="16.009733"
         sodipodi:arg1="0.52359878"
         sodipodi:arg2="1.0471976"
         inkscape:flatsided="true"
         inkscape:rounded="0"
         inkscape:randomized="0"
         d="M 106.41639,71.528136 90.406654,80.77136 74.39692,71.528136 l 1e-6,-18.486448 16.009733,-9.243224 16.009736,9.243224 z"
         inkscape:transform-center-y="-2.0642857e-06" />
      <path
         style="opacity:1;fill:#cc333f;fill-opacity:1;stroke-width:0.25030875"
         d="m 82.291075,75.973342 -7.634415,-4.448837 -0.05964,-9.230028 -0.05964,-9.230028 7.73315,-4.44298 c 4.253233,-2.44364 7.800038,-4.44298 7.881789,-4.44298 0.08175,0 0.14864,8.166322 0.14864,18.147382 0,9.981061 -0.08448,18.135892 -0.187732,18.121844 -0.103253,-0.01404 -3.623219,-2.027513 -7.822149,-4.474373 z"
         id="path4757"
         inkscape:connector-curvature="0" />
    </g>
    <g
       id="g4765"
       transform="matrix(0.66656822,0,0,0.75960969,-15.029827,175.74347)">
      <path
         inkscape:transform-center-y="-2.0642857e-06"
         d="M 106.41639,71.528136 90.406654,80.77136 74.39692,71.528136 l 1e-6,-18.486448 16.009733,-9.243224 16.009736,9.243224 z"
         inkscape:randomized="0"
         inkscape:rounded="0"
         inkscape:flatsided="true"
         sodipodi:arg2="1.0471976"
         sodipodi:arg1="0.52359878"
         sodipodi:r2="16.009733"
         sodipodi:r1="18.486448"
         sodipodi:cy="62.284912"
         sodipodi:cx="90.406654"
         sodipodi:sides="6"
         id="path4761"
         style="opacity:1;fill:#9f2831;fill-opacity:1;stroke-width:0.12389649"
         sodipodi:type="star" />
      <path
         inkscape:connector-curvature="0"
         id="path4763"
         d="m 82.291075,75.973342 -7.634415,-4.448837 -0.05964,-9.230028 -0.05964,-9.230028 7.73315,-4.44298 c 4.253233,-2.44364 7.800038,-4.44298 7.881789,-4.44298 0.08175,0 0.14864,8.166322 0.14864,18.147382 0,9.981061 -0.08448,18.135892 -0.187732,18.121844 -0.103253,-0.01404 -3.623219,-2.027513 -7.822149,-4.474373 z"
         style="opacity:1;fill:#cc333f;fill-opacity:1;stroke-width:0.25030875" />
    </g>
    <g
       transform="matrix(0.66656822,0,0,0.75960969,8.2966192,175.7362)"
       id="g4771">
      <path
         sodipodi:type="star"
         style="opacity:1;fill:#9f2831;fill-opacity:1;stroke-width:0.12389649"
         id="path4767"
         sodipodi:sides="6"
         sodipodi:cx="90.406654"
         sodipodi:cy="62.284912"
         sodipodi:r1="18.486448"
         sodipodi:r2="16.009733"
         sodipodi:arg1="0.52359878"
         sodipodi:arg2="1.0471976"
         inkscape:flatsided="true"
         inkscape:rounded="0"
         inkscape:randomized="0"
         d="M 106.41639,71.528136 90.406654,80.77136 74.39692,71.528136 l 1e-6,-18.486448 16.009733,-9.243224 16.009736,9.243224 z"
         inkscape:transform-center-y="-2.0642857e-06" />
      <path
         style="opacity:1;fill:#cc333f;fill-opacity:1;stroke-width:0.25030875"
         d="m 82.291075,75.973342 -7.634415,-4.448837 -0.05964,-9.230028 -0.05964,-9.230028 7.73315,-4.44298 c 4.253233,-2.44364 7.800038,-4.44298 7.881789,-4.44298 0.08175,0 0.14864,8.166322 0.14864,18.147382 0,9.981061 -0.08448,18.135892 -0.187732,18.121844 -0.103253,-0.01404 -3.623219,-2.027513 -7.822149,-4.474373 z"
         id="path4769"
         inkscape:connector-curvature="0" />
    </g>
    <g
       transform="matrix(0.66656822,0,0,0.75960969,-3.5070914,198.78261)"
       id="g4777">
      <path
         sodipodi:type="star"
         style="opacity:1;fill:#9f2831;fill-opacity:1;stroke-width:0.12389649"
         id="path4773"
         sodipodi:sides="6"
         sodipodi:cx="90.406654"
         sodipodi:cy="62.284912"
         sodipodi:r1="18.486448"
         sodipodi:r2="16.009733"
         sodipodi:arg1="0.52359878"
         sodipodi:arg2="1.0471976"
         inkscape:flatsided="true"
         inkscape:rounded="0"
         inkscape:randomized="0"
         d="M 106.41639,71.528136 90.406654,80.77136 74.39692,71.528136 l 1e-6,-18.486448 16.009733,-9.243224 16.009736,9.243224 z"
         inkscape:transform-center-y="-2.0642857e-06" />
      <path
         style="opacity:1;fill:#cc333f;fill-opacity:1;stroke-width:0.25030875"
         d="m 82.291075,75.973342 -7.634415,-4.448837 -0.05964,-9.230028 -0.05964,-9.230028 7.73315,-4.44298 c 4.253233,-2.44364 7.800038,-4.44298 7.881789,-4.44298 0.08175,0 0.14864,8.166322 0.14864,18.147382 0,9.981061 -0.08448,18.135892 -0.187732,18.121844 -0.103253,-0.01404 -3.623219,-2.027513 -7.822149,-4.474373 z"
         id="path4775"
         inkscape:connector-curvature="0" />
    </g>
  </g>
</svg>
